<svg width="249" height="272" viewBox="0 0 249 272" fill="none" xmlns="http://www.w3.org/2000/svg">
<path d="M48.6868 251.258C44.8269 261.826 46.5428 271.609 66.2728 271.609H42.6828C30.6727 271.609 19.519 272.391 11.7997 269.652C-5.78827 261.434 0.217765 251.258 4.9367 238.734L77.4259 56.7495C87.2919 31.7019 97.5867 0.783722 128.04 0.783722L172.22 0C160.21 0.392487 149.487 4.30502 140.909 12.5238C127.611 25.44 128.47 38.7457 135.333 56.7495L206.535 235.604C214.685 255.954 219.833 272 249 272H206.535C175.652 272 166.645 253.214 158.494 231.298L106.594 95.8858C106.594 95.8858 51.6899 243.431 48.6868 251.258Z" fill="url(#paint0_linear_322_3139)" fill-opacity="0.5"/>
<defs>
<linearGradient id="paint0_linear_322_3139" x1="63.0515" y1="272" x2="313.437" y2="160.04" gradientUnits="userSpaceOnUse">
<stop stop-color="#6CBD45"/>
<stop offset="0.606279" stop-color="#325720"/>
<stop offset="1" stop-color="#00FF9C"/>
</linearGradient>
</defs>
</svg>

