<svg width="48" height="48" viewBox="0 0 48 48" fill="none" xmlns="http://www.w3.org/2000/svg">
<mask id="path-1-inside-1_322_2772" fill="white">
<path d="M0 10C0 4.47715 4.47715 0 10 0H38C43.5229 0 48 4.47715 48 10V38C48 43.5229 43.5228 48 38 48H10C4.47715 48 0 43.5228 0 38V10Z"/>
</mask>
<path d="M0 10C0 4.47715 4.47715 0 10 0H38C43.5229 0 48 4.47715 48 10V38C48 43.5229 43.5228 48 38 48H10C4.47715 48 0 43.5228 0 38V10Z" fill="#1E2939" fill-opacity="0.5"/>
<path d="M10 0V1.18025H38V0V-1.18025H10V0ZM48 10H46.8198V38H48H49.1802V10H48ZM38 48V46.8198H10V48V49.1802H38V48ZM0 38H1.18025V10H0H-1.18025V38H0ZM10 48V46.8198C5.12899 46.8198 1.18025 42.871 1.18025 38H0H-1.18025C-1.18025 44.1747 3.82532 49.1802 10 49.1802V48ZM48 38H46.8198C46.8198 42.871 42.871 46.8198 38 46.8198V48V49.1802C44.1747 49.1802 49.1802 44.1747 49.1802 38H48ZM38 0V1.18025C42.871 1.18025 46.8198 5.12899 46.8198 10H48H49.1802C49.1802 3.82532 44.1747 -1.18025 38 -1.18025V0ZM10 0V-1.18025C3.82532 -1.18025 -1.18025 3.82532 -1.18025 10H0H1.18025C1.18025 5.12899 5.12899 1.18025 10 1.18025V0Z" fill="#364153" mask="url(#path-1-inside-1_322_2772)"/>
<path d="M31 22.9964H17C15.8954 22.9964 15 23.8915 15 24.9957V31.9935C15 33.0977 15.8954 33.9928 17 33.9928H31C32.1046 33.9928 33 33.0977 33 31.9935V24.9957C33 23.8915 32.1046 22.9964 31 22.9964Z" stroke="#6A7282" stroke-width="1.99935" stroke-linecap="round" stroke-linejoin="round"/>
<path d="M19 22.9964V18.9977C19 17.6721 19.5268 16.4007 20.4645 15.4633C21.4021 14.5259 22.6739 13.9993 24 13.9993C25.3261 13.9993 26.5979 14.5259 27.5355 15.4633C28.4732 16.4007 29 17.6721 29 18.9977V22.9964" stroke="#6A7282" stroke-width="1.99935" stroke-linecap="round" stroke-linejoin="round"/>
</svg>

